# xmcd
#
# Track frame offsets:
# 150
# 760
# 24340
# 46533
# 69650
# 93053
# 117011
# 140393
# 163507
# 186880
# 209819
# 232037
# 255074
# 277593
# 299661
# 323746
#
# Disc length: 4715 seconds
#
#
# Revision: 1
# Processed by: cddbd v1.5.1PL2 Copyright (c) Steve Scherf et al.
# Submitted via: FreeRIP 2.942 
#
DISCID=c8126910
DTITLE=Anne Holt - CD1
DYEAR=2004
DGENRE=Speech
TTITLE0=1
TTITLE1=2
TTITLE2=3
TTITLE3=4
TTITLE4=5
TTITLE5=6
TTITLE6=7
TTITLE7=8
TTITLE8=9
TTITLE9=10
TTITLE10=11
TTITLE11=12
TTITLE12=13
TTITLE13=14
TTITLE14=15
TTITLE15=16
EXTD=Det som aldrig sker
EXTT0=
EXTT1=
EXTT2=
EXTT3=
EXTT4=
EXTT5=
EXTT6=
EXTT7=
EXTT8=
EXTT9=
EXTT10=
EXTT11=
EXTT12=
EXTT13=
EXTT14=
EXTT15=
PLAYORDER=
